<?xml version="1.0" standalone="no"?>
<!DOCTYPE svg PUBLIC "-//W3C//DTD SVG 20010904//EN"
 "http://www.w3.org/TR/2001/REC-SVG-20010904/DTD/svg10.dtd">
<svg version="1.0" xmlns="http://www.w3.org/2000/svg"
 width="1024.000000pt" height="1024.000000pt" viewBox="0 0 1024.000000 1024.000000"
 preserveAspectRatio="xMidYMid meet">

<g transform="translate(0.000000,1024.000000) scale(0.100000,-0.100000)"
fill="#000000" stroke="none">
<path d="M2080 7920 l0 -240 -240 0 -240 0 0 -2560 0 -2560 1200 0 1200 0 0
-80 0 -80 240 0 240 0 0 -80 0 -80 160 0 160 0 0 -80 0 -80 320 0 320 0 0 80
0 80 160 0 160 0 0 80 0 80 240 0 240 0 0 80 0 80 1200 0 1200 0 0 2560 0
2560 -240 0 -240 0 0 240 0 240 -880 0 -880 0 0 -80 0 -80 -320 0 -320 0 0
-80 0 -80 -160 0 -160 0 0 -80 0 -80 -320 0 -320 0 0 80 0 80 -160 0 -160 0 0
80 0 80 -320 0 -320 0 0 80 0 80 -880 0 -880 0 0 -240z m1760 -320 l0 -80 320
0 320 0 0 -80 0 -80 160 0 160 0 0 -80 0 -80 80 0 80 0 0 -2160 0 -2160 -160
0 -160 0 0 80 0 80 -160 0 -160 0 0 80 0 80 -240 0 -240 0 0 80 0 80 -720 0
-720 0 0 2160 0 2160 720 0 720 0 0 -80z m4000 -2080 l0 -2160 -720 0 -720 0
0 -80 0 -80 -240 0 -240 0 0 -80 0 -80 -160 0 -160 0 0 -80 0 -80 -160 0 -160
0 0 2160 0 2160 80 0 80 0 0 80 0 80 160 0 160 0 0 80 0 80 320 0 320 0 0 80
0 80 720 0 720 0 0 -2160z"/>
<path d="M6240 6800 l0 -240 -160 0 -160 0 0 -80 0 -80 -80 0 -80 0 0 -80 0
-80 -80 0 -80 0 0 -400 0 -400 80 0 80 0 0 -80 0 -80 80 0 80 0 0 -80 0 -80
400 0 400 0 0 -240 0 -240 -320 0 -320 0 0 80 0 80 -240 0 -240 0 0 -240 0
-240 80 0 80 0 0 -80 0 -80 240 0 240 0 0 -240 0 -240 240 0 240 0 0 240 0
240 160 0 160 0 0 80 0 80 80 0 80 0 0 80 0 80 80 0 80 0 0 400 0 400 -80 0
-80 0 0 80 0 80 -80 0 -80 0 0 80 0 80 -400 0 -400 0 0 240 0 240 240 0 240 0
0 -80 0 -80 240 0 240 0 0 240 0 240 -80 0 -80 0 0 80 0 80 -160 0 -160 0 0
240 0 240 -240 0 -240 0 0 -240z"/>
</g>
</svg>
